HIERARCHY
ROOT Hips
{
    OFFSET 0.000000 0.000000 0.000000
    CHANNELS 6 Xposition Yposition Zposition Zrotation Xrotation Yrotation
    JOINT Spine
    {
        OFFSET -0.000000 8.339920 0.000000
        CHANNELS 3 Zrotation Xrotation Yrotation
        JOINT Spine1
        {
            OFFSET -0.000000 25.214485 0.000000
            CHANNELS 3 Zrotation Xrotation Yrotation
            JOINT Neck
            {
                OFFSET -0.000000 25.110935 2.282812
                CHANNELS 3 Zrotation Xrotation Yrotation
                JOINT Head
                {
                    OFFSET -0.000000 14.238888 -2.034127
                    CHANNELS 3 Zrotation Xrotation Yrotation
                    End Site
                    {
                        OFFSET -0.000000 25.426584 0.000000
                    }
                }
            }
            JOINT LeftShoulder
            {
                OFFSET 4.025024 23.158985 -0.185822
                CHANNELS 3 Zrotation Xrotation Yrotation
                JOINT LeftArm
                {
                    OFFSET 11.674057 0.000000 0.000000
                    CHANNELS 3 Zrotation Xrotation Yrotation
                    JOINT LeftForeArm
                    {
                        OFFSET 31.688633 0.000000 0.000000
                        CHANNELS 3 Zrotation Xrotation Yrotation
                        JOINT LeftHand
                        {
                            OFFSET 29.704493 0.000000 0.000000
                            CHANNELS 3 Zrotation Xrotation Yrotation
                            End Site
                            {
                                OFFSET 15.255952 0.000000 0.000000
                            }
                        }
                    }
                }
            }
            JOINT RightShoulder
            {
                OFFSET -4.099539 23.158985 -0.185822
                CHANNELS 3 Zrotation Xrotation Yrotation
                JOINT RightArm
                {
                    OFFSET -11.674057 0.000000 0.000000
                    CHANNELS 3 Zrotation Xrotation Yrotation
                    JOINT RightForeArm
                    {
                        OFFSET -31.688633 0.000000 0.000000
                        CHANNELS 3 Zrotation Xrotation Yrotation
                        JOINT RightHand
                        {
                            OFFSET -29.704493 0.000000 0.000000
                            CHANNELS 3 Zrotation Xrotation Yrotation
                            End Site
                            {
                                OFFSET -15.255952 0.000000 0.000000
                            }
                        }
                    }
                }
            }
        }
    }
    JOINT LeftUpLeg
    {
        OFFSET 10.170634 0.000000 0.000000
        CHANNELS 3 Zrotation Xrotation Yrotation
        JOINT LeftLeg
        {
            OFFSET -0.000000 -41.352962 0.000000
            CHANNELS 3 Zrotation Xrotation Yrotation
            JOINT LeftFoot
            {
                OFFSET -0.000000 -47.535004 0.000000
                CHANNELS 3 Zrotation Xrotation Yrotation
                JOINT LeftToeBase
                {
                    OFFSET -0.000000 -6.610912 15.255952
                    CHANNELS 3 Zrotation Xrotation Yrotation
                    End Site
                    {
                        OFFSET -0.000000 0.000000 4.068254
                    }
                }
            }
        }
    }
    JOINT RightUpLeg
    {
        OFFSET -10.170634 0.000000 0.000000
        CHANNELS 3 Zrotation Xrotation Yrotation
        JOINT RightLeg
        {
            OFFSET -0.000000 -41.352962 0.000000
            CHANNELS 3 Zrotation Xrotation Yrotation
            JOINT RightFoot
            {
                OFFSET -0.000000 -47.535004 0.000000
                CHANNELS 3 Zrotation Xrotation Yrotation
                JOINT RightToeBase
                {
                    OFFSET -0.000000 -6.610912 15.255952
                    CHANNELS 3 Zrotation Xrotation Yrotation
                    End Site
                    {
                        OFFSET -0.000000 0.000000 4.068254
                    }
                }
            }
        }
    }
}
MOTION
Frames:    14
Frame Time:    0.008333
14.745204    94.023521    47.985073    -1.360619    -0.921978    91.042320    -0.177269    -6.354845    -1.414667    3.731625    1.856278    -1.465301    -8.093085    26.876171    -0.044691    3.956811    -1.430053    -0.272020    15.036642    -0.620947    1.032526    -27.890228    -13.776155    8.156722    7.710009    -35.082058    4.212768    14.449430    -35.011055    2.923618    -21.701790    -0.773362    -7.768391    34.062012    -12.466475    -0.252626    -3.003842    -26.174774    2.305150    -30.914206    -25.484121    -2.555869    2.713929    10.261757    1.871089    0.522632    -8.109606    6.857072    -3.456549    -2.762394    3.533405    0.000000    0.000000    0.000000    2.133554    8.153300    2.254450    -3.529227    -2.915298    1.369742    1.045869    -6.905784    -16.612545    0.000000    0.000000    0.000000    
14.736229    94.024307    47.971352    -1.375062    -0.925989    91.035202    -0.161271    -6.360307    -1.420427    3.721307    1.871585    -1.472299    -8.055608    26.816992    -0.095369    3.936510    -1.394363    -0.320404    15.064216    -0.626549    1.057869    -27.856653    -13.741084    8.147020    7.707483    -34.880592    4.201676    14.383351    -34.813591    2.890450    -21.713629    -0.780195    -7.752641    34.025593    -12.492276    -0.213545    -3.070664    -26.015600    2.213166    -30.694719    -25.341314    -2.509474    2.681267    10.212582    1.944899    0.567189    -8.061495    6.872407    -3.475583    -2.783022    3.449901    0.000000    0.000000    0.000000    2.122298    8.130574    2.151489    -3.516626    -2.914316    1.520664    1.040823    -6.896716    -16.641176    0.000000    0.000000    0.000000    
14.731934    94.026093    47.958382    -1.384396    -0.929172    91.024292    -0.149132    -6.364403    -1.420486    3.709458    1.883049    -1.473173    -8.076931    26.803490    -0.123027    4.027900    -1.412466    -0.335558    15.086467    -0.633771    1.077245    -27.812140    -13.725311    8.131327    7.698493    -34.742180    4.173858    14.438947    -34.670643    2.904229    -21.684114    -0.789344    -7.733285    33.941261    -12.521130    -0.195939    -3.071595    -25.954559    2.147055    -30.619453    -25.291847    -2.474182    2.673798    10.219242    1.890016    0.574301    -8.092074    6.912078    -3.446468    -2.763470    3.477261    0.000000    0.000000    0.000000    2.113165    8.131985    2.179811    -3.515645    -2.940014    1.484107    1.070633    -6.878023    -16.622557    0.000000    0.000000    0.000000    
14.726286    94.024994    47.944828    -1.393186    -0.936644    91.017059    -0.088418    -6.349518    -1.403414    3.592570    1.868437    -1.457144    -7.954373    26.764193    -0.180251    4.032424    -1.384430    -0.379523    15.199196    -0.638663    1.080196    -27.797806    -13.738454    8.100425    7.717264    -34.606422    4.205140    14.291533    -34.566471    2.649569    -21.558517    -0.779052    -7.753163    33.816856    -12.542697    -0.170376    -3.175989    -25.795523    2.095129    -30.284330    -25.149290    -2.430146    2.671836    10.217008    1.888539    0.571718    -8.112330    6.944176    -3.416816    -2.749089    3.459335    0.000000    0.000000    0.000000    2.110761    8.128246    2.180827    -3.514506    -2.957578    1.467018    1.088059    -6.858094    -16.602644    0.000000    0.000000    0.000000    
14.718410    94.025826    47.933491    -1.407025    -0.942146    91.018349    -0.080521    -6.355685    -1.419782    3.593686    1.887576    -1.474542    -7.954638    26.725420    -0.189440    4.057635    -1.401837    -0.381475    15.229633    -0.663204    1.102551    -27.766325    -13.682172    8.120901    7.738611    -34.498875    4.206916    14.116317    -34.484032    2.444160    -21.555902    -0.807259    -7.726058    33.735767    -12.557072    -0.151340    -3.216064    -25.649141    2.042620    -30.060986    -25.009624    -2.420993    2.673012    10.203434    1.860827    0.571362    -8.115384    6.943369    -3.413447    -2.749645    3.476701    0.000000    0.000000    0.000000    2.111407    8.117856    2.171607    -3.522969    -2.971221    1.490193    1.076942    -6.841305    -16.600792    0.000000    0.000000    0.000000    
14.711630    94.026161    47.918098    -1.416649    -0.940808    91.017395    -0.117922    -6.356714    -1.434082    3.685622    1.905300    -1.488865    -8.009013    26.681202    -0.215837    4.081796    -1.418223    -0.406731    15.220244    -0.671869    1.103306    -27.732370    -13.642466    8.150411    7.700857    -34.422485    4.172341    14.110957    -34.406647    2.424791    -21.628952    -0.815708    -7.709339    33.666260    -12.615801    -0.131725    -3.284250    -25.552866    1.958646    -29.639250    -24.946918    -2.319628    2.661506    10.197634    1.840894    0.571972    -8.126563    6.933460    -3.419693    -2.751348    3.513077    0.000000    0.000000    0.000000    2.091322    8.108731    2.224221    -3.508911    -2.973618    1.472208    1.063345    -6.844802    -16.643188    0.000000    0.000000    0.000000    
14.705281    94.025635    47.904465    -1.427269    -0.943359    91.014145    -0.129027    -6.356409    -1.431677    3.716536    1.917522    -1.486726    -8.002367    26.633684    -0.241021    4.116525    -1.429417    -0.422576    15.250311    -0.687520    1.106349    -27.690052    -13.691533    8.133896    7.685887    -34.260590    4.252916    13.793135    -34.287506    2.093344    -21.628372    -0.831248    -7.695150    33.542389    -12.682055    -0.143381    -3.299972    -25.444555    1.886383    -29.376318    -24.850849    -2.294577    2.655674    10.191883    1.830059    0.572101    -8.142446    6.913901    -3.401855    -2.751984    3.550703    0.000000    0.000000    0.000000    2.082431    8.099262    2.244110    -3.502468    -2.982998    1.456938    1.058759    -6.837806    -16.638472    0.000000    0.000000    0.000000    
14.696601    94.025009    47.890629    -1.438162    -0.946379    91.013649    -0.142565    -6.366323    -1.432098    3.745608    1.958972    -1.488215    -7.951849    26.581148    -0.290514    4.100420    -1.471045    -0.465802    15.299000    -0.703306    1.124634    -27.671066    -13.738743    8.101280    7.761290    -34.105545    4.319143    13.436520    -34.161629    1.913200    -21.633240    -0.851973    -7.691008    33.422916    -12.725215    -0.147199    -3.378187    -25.280993    1.828150    -29.029297    -24.697924    -2.276220    2.654239    10.183716    1.816255    0.562257    -8.149834    6.906554    -3.389127    -2.756843    3.575383    0.000000    0.000000    0.000000    2.073507    8.083682    2.255707    -3.499466    -2.985487    1.475697    1.054319    -6.840118    -16.675833    0.000000    0.000000    0.000000    
14.688895    94.023476    47.877892    -1.447001    -0.951708    91.013878    -0.148198    -6.362111    -1.431720    3.771745    1.969888    -1.488321    -7.925578    26.537642    -0.321401    4.108083    -1.484003    -0.490211    15.340575    -0.726450    1.115872    -27.656252    -13.773029    8.101888    7.765527    -34.169071    4.292325    13.595363    -34.218323    1.945146    -21.631567    -0.863292    -7.676075    33.287899    -12.754084    -0.160235    -3.504768    -24.992954    1.767949    -28.553406    -24.462286    -2.083119    2.673740    10.208196    1.747277    0.527417    -8.213607    6.879344    -3.335804    -2.737255    3.662354    0.000000    0.000000    0.000000    2.074315    8.069493    2.220547    -3.505224    -2.991994    1.493703    1.072485    -6.840033    -16.662300    0.000000    0.000000    0.000000    
14.679525    94.023392    47.862270    -1.462264    -0.956535    91.016518    -0.149720    -6.362899    -1.426501    3.791107    1.979045    -1.483725    -7.905047    26.434025    -0.395359    4.124438    -1.360999    -0.558669    15.359039    -0.749723    1.112811    -27.611086    -13.804007    8.077652    7.786978    -34.091148    4.301311    13.460257    -34.145428    1.926493    -21.613205    -0.866213    -7.673341    33.132355    -12.836907    -0.168455    -3.542951    -24.693302    1.676274    -28.353407    -24.172264    -2.060027    2.676628    10.199669    1.716151    0.515395    -8.229262    6.863473    -3.309011    -2.743832    3.706049    0.000000    0.000000    0.000000    2.024720    8.039922    2.386778    -3.432702    -2.949991    1.550843    1.024239    -6.878216    -16.873123    0.000000    0.000000    0.000000    
14.673895    94.023964    47.847610    -1.472059    -0.960644    91.013893    -0.143012    -6.362779    -1.421600    3.796014    1.986398    -1.479507    -7.867822    26.431435    -0.430706    4.137278    -1.435520    -0.586938    15.372085    -0.763652    1.093406    -27.547258    -13.839661    8.080953    7.780480    -34.045746    4.310498    13.374096    -34.114273    1.795601    -21.612181    -0.879131    -7.667099    33.003456    -12.855186    -0.180250    -3.637457    -24.504807    1.612353    -28.144337    -23.976402    -2.107314    2.672599    10.198497    1.695477    0.512965    -8.248995    6.900482    -3.288884    -2.741231    3.694010    0.000000    0.000000    0.000000    2.017152    8.019050    2.367693    -3.425921    -2.937332    1.548824    1.045461    -6.881093    -16.852348    0.000000    0.000000    0.000000    
14.668563    94.024048    47.832184    -1.480183    -0.966480    91.015816    -0.133759    -6.368456    -1.422063    3.799915    2.016990    -1.481545    -7.824229    26.384262    -0.480768    4.142800    -1.472951    -0.628731    15.411309    -0.789223    1.096577    -27.492262    -13.903123    8.067528    7.769063    -34.020508    4.310458    13.217471    -34.103394    1.663789    -21.626591    -0.894471    -7.663259    32.884243    -12.895945    -0.196533    -3.656583    -24.318119    1.555454    -27.846935    -23.870506    -1.777407    2.668684    10.196289    1.694870    0.513863    -8.263760    6.873502    -3.273813    -2.742429    3.721605    0.000000    0.000000    0.000000    2.014416    8.021342    2.395125    -3.431128    -2.964363    1.517298    1.051829    -6.865202    -16.845440    0.000000    0.000000    0.000000    
14.661117    94.023521    47.817894    -1.492103    -0.975682    91.025856    -0.121185    -6.369779    -1.429024    3.799362    2.031246    -1.489715    -7.804546    26.404364    -0.485793    4.218377    -1.648479    -0.615585    15.454968    -0.818903    1.081488    -27.435326    -13.960273    8.082563    7.728450    -34.029396    4.326469    13.399830    -34.113491    1.624403    -21.619884    -0.891915    -7.658396    32.746662    -12.983390    -0.190369    -3.792325    -24.102348    1.500028    -27.441788    -23.670656    -1.730188    2.669441    10.182909    1.688936    0.514055    -8.270645    6.855258    -3.249353    -2.746125    3.728811    0.000000    0.000000    0.000000    2.012536    8.003468    2.392489    -3.426225    -2.957292    1.514018    1.087456    -6.865480    -16.851221    0.000000    0.000000    0.000000    
14.656532    94.023064    47.803936    -1.497272    -0.984600    91.035721    -0.101854    -6.343608    -1.436944    3.797755    1.971352    -1.496660    -7.823497    26.467232    -0.507804    4.298000    -1.724811    -0.629929    15.434801    -0.782789    1.027754    -27.314249    -14.042525    8.081608    7.756711    -33.960236    4.405588    13.355598    -34.044544    1.683426    -21.604023    -0.859095    -7.604877    32.599014    -13.059183    -0.212898    -3.818024    -23.987631    1.480952    -27.322002    -23.594204    -1.565726    2.668576    10.182230    1.672548    0.519153    -8.284979    6.870639    -3.252881    -2.738315    3.722853    0.000000    0.000000    0.000000    2.015614    7.998707    2.380442    -3.425902    -2.966322    1.435542    1.073462    -6.837007    -16.776337    0.000000    0.000000    0.000000    
